PathFileType	4	(X/Y/Z)	./resultDataOpenSim/trcMotMarkerGrf/sub06/qtm-15-03.trc
DataRate	CameraRate	NumFrames	NumMarkers	Units	OrigDataRate	OrigDataStartFrame	OrigNumFrames
250.000000	250.000000	10	24	m	250.000000	391	521
Frame#	Time	L.Toe.Tip			R.Toe.Tip			L.Ankle.Lat			R.Ankle.Lat			L.Ankle.Med			R.Ankle.Med			L.Heel			R.Heel			L.Knee.Lat			R.Knee.Lat			L.Knee.Med			R.Knee.Med			L.Thigh.Upper			R.Thigh.Upper			L.ASIS			R.ASIS			V.Sacral			L.Acromium			R.Acromium			C7			L.Elbow			R.Elbow			L.Wrist.Lat			R.Wrist.Lat
		X1	Y1	Z1	X2	Y2	Z2	X3	Y3	Z3	X4	Y4	Z4	X5	Y5	Z5	X6	Y6	Z6	X7	Y7	Z7	X8	Y8	Z8	X9	Y9	Z9	X10	Y10	Z10	X11	Y11	Z11	X12	Y12	Z12	X13	Y13	Z13	X14	Y14	Z14	X15	Y15	Z15	X16	Y16	Z16	X17	Y17	Z17	X18	Y18	Z18	X19	Y19	Z19	X20	Y20	Z20	X21	Y21	Z21	X22	Y22	Z22	X23	Y23	Z23	X24	Y24	Z24

391	1.56	1.3699133	0.091198085	-0.09557209	0.99816487	0.035733928	0.076635373	1.250134	0.13894954	-0.10877715	0.87555233	0.094351769	0.11254522	1.2657234	0.15550665	-0.025924343	0.89804402	0.11815537	0.028543285	1.178914	0.1155025	-0.057465472	0.8169812	0.09187287	0.05542987	1.3272693	0.51121547	-0.11754864	1.0195557	0.46163251	0.14365855	1.3066771	0.50446362	0.0032265615	0.99590042	0.4598635	0.015421314	1.1251365	0.85221767	-0.14302231	1.0635275	0.82852996	0.19942811	1.1824233	0.89648873	-0.082264752	1.1658724	0.88424192	0.16058116	0.99337545	0.96532673	0.029194827	1.1480509	1.3910312	-0.12966565	1.1809549	1.3564023	0.21254605	1.0928453	1.4056482	0.050704545	0.97135631	1.1396435	-0.21120061	1.3005406	1.0630362	0.27387122	1.0710632	0.9127568	-0.25846267	1.5088052	1.1404457	0.15269705
392	1.564	1.3870074	0.092071917	-0.094484651	0.99827372	0.035719028	0.076681049	1.265921	0.13629595	-0.10785502	0.87598132	0.094955199	0.11263582	1.2817033	0.15346324	-0.025481934	0.89864529	0.11847381	0.02854135	1.1952969	0.11085621	-0.056562565	0.81743231	0.09275718	0.055479196	1.3333691	0.51041392	-0.11667358	1.0220372	0.46147019	0.1435337	1.312301	0.50332554	0.0040573161	0.998849	0.45961572	0.015210964	1.1316589	0.85138958	-0.14311511	1.06813	0.82779291	0.19879217	1.1888648	0.89560712	-0.082139816	1.1711277	0.8834373	0.1607019	0.9993016	0.96443741	0.028693086	1.1525809	1.3904947	-0.12988642	1.1858173	1.3558984	0.21241095	1.097224	1.4048424	0.05066752	0.97518374	1.1394979	-0.20964971	1.3085454	1.0639656	0.27272301	1.0729526	0.91215824	-0.25837704	1.5147622	1.1440732	0.14972585
393	1.568	1.40398	0.093117894	-0.093243985	0.99835353	0.035690653	0.076709252	1.281692	0.13379238	-0.10686009	0.87639603	0.095542725	0.11271854	1.2974294	0.15151393	-0.02484576	0.89922506	0.11883426	0.028551594	1.2116794	0.1064011	-0.055741512	0.8178856	0.093640887	0.055530521	1.3393583	0.50947748	-0.11584439	1.0245445	0.46127256	0.14342229	1.3178506	0.50205625	0.0048819665	1.0018185	0.45931266	0.015006429	1.1381926	0.85045992	-0.14322283	1.0727987	0.8269967	0.19815993	1.1952989	0.89464569	-0.082057499	1.1764014	0.88253287	0.1607672	1.0052175	0.96346248	0.028183471	1.1571543	1.3898752	-0.13012071	1.1906977	1.3553076	0.2122855	1.1016339	1.4039592	0.05061522	0.97904082	1.1391829	-0.20821337	1.3164852	1.0648179	0.27157023	1.0749341	0.91146085	-0.25831288	1.5206595	1.1475082	0.14679321
394	1.572	1.4208067	0.094324678	-0.091824795	0.99841289	0.035655714	0.076731329	1.2974575	0.13145021	-0.10581218	0.87679433	0.09611394	0.11279356	1.3126996	0.14959115	-0.023937998	0.89979416	0.11922428	0.028589429	1.2280468	0.1021675	-0.05501524	0.81833061	0.094534007	0.055598868	1.3452517	0.50840034	-0.11505663	1.02709	0.46103769	0.1433281	1.3233248	0.50066195	0.0057030842	1.0047971	0.45896497	0.014812739	1.1447716	0.84943773	-0.14336266	1.07753	0.82613894	0.19753019	1.2017307	0.89361309	-0.082029191	1.1817069	0.88153945	0.16078399	1.0110981	0.96240414	0.027547266	1.1617704	1.3891723	-0.13037038	1.195594	1.3546305	0.21216075	1.1060744	1.4030042	0.050547586	0.98296198	1.1387273	-0.20684122	1.3243473	1.0655943	0.27041664	1.0770085	0.91066572	-0.25826521	1.5264952	1.1507626	0.14389422
395	1.576	1.4374623	0.095681629	-0.090232069	0.99845823	0.035619719	0.07675232	1.3131982	0.12928571	-0.10474082	0.87718946	0.096669995	0.11287648	1.3272457	0.1476083	-0.022748585	0.90035619	0.1196283	0.028648423	1.244382	0.098179374	-0.054393218	0.81876781	0.095439928	0.055695496	1.3510565	0.50717995	-0.11430732	1.0296854	0.46076538	0.14324577	1.3287538	0.49914762	0.0065245975	1.0077839	0.45857948	0.01462642	1.1513817	0.8483343	-0.14353245	1.0822951	0.82521183	0.19687242	1.2081594	0.8925177	-0.082063929	1.1870478	0.88046754	0.16075697	1.0169588	0.96127923	0.026766819	1.1664252	1.3883865	-0.1306462	1.2004948	1.3538807	0.21203039	1.1105386	1.4019847	0.050472278	0.98697581	1.138155	-0.20549719	1.3321099	1.0662967	0.26926534	1.079167	0.90977901	-0.25822982	1.5322682	1.1538519	0.14103389
396	1.58	1.4539298	0.097185406	-0.088527366	0.99849699	0.035584075	0.076771787	1.3288672	0.12731376	-0.10367277	0.87759381	0.097211425	0.11298093	1.340821	0.14551412	-0.021340509	0.90091403	0.12003716	0.028721273	1.2606657	0.094455582	-0.053875721	0.81921038	0.096357142	0.055818974	1.3567804	0.50581885	-0.1135888	1.0323434	0.46045855	0.14316667	1.3341665	0.4975156	0.0073549728	1.0107817	0.4581625	0.014442973	1.1579979	0.84715791	-0.14372076	1.0870385	0.82420356	0.19612406	1.2145841	0.89136453	-0.082159118	1.1924286	0.87931994	0.16068832	1.0228261	0.96010204	0.025919083	1.1711179	1.3875222	-0.13095372	1.2053795	1.3530843	0.21189179	1.1150182	1.400905	0.050393364	0.99109498	1.1374747	-0.2041735	1.3397781	1.0669211	0.26811515	1.0814019	0.90881066	-0.25821361	1.5379819	1.1567814	0.13822386
397	1.584	1.4702048	0.098830918	-0.086802246	0.99853618	0.035549019	0.076786769	1.3444117	0.12554268	-0.10261676	0.87800814	0.097750975	0.11310893	1.3536223	0.14342825	-0.019900727	0.9014728	0.12044787	0.028806267	1.2768745	0.090995589	-0.053402968	0.8196702	0.09728651	0.055964684	1.3624379	0.50432475	-0.11288671	1.0350788	0.46012076	0.14308893	1.3395638	0.49576912	0.0082048276	1.0137988	0.45772322	0.014261787	1.1646072	0.84591255	-0.1439174	1.0917348	0.82311497	0.19525149	1.2210079	0.89015381	-0.082307213	1.1978532	0.87809864	0.16058347	1.0287029	0.95887152	0.025087039	1.1758516	1.3865845	-0.13128802	1.2102455	1.3522559	0.21173625	1.1195135	1.3997668	0.050301941	0.99531921	1.1366882	-0.202878	1.3473757	1.0674608	0.26696092	1.0837214	0.90776607	-0.25823266	1.5436476	1.1595499	0.13547186
398	1.588	1.4862732	0.10060385	-0.085106023	0.99857908	0.035516613	0.076794035	1.3597829	0.12397377	-0.10157017	0.87844097	0.098314802	0.11325644	1.3663592	0.14160672	-0.018625942	0.90203793	0.12086032	0.028902386	1.2929673	0.087772277	-0.052864075	0.82014584	0.098231032	0.056135057	1.3680482	0.50270571	-0.11218373	1.037899	0.45975149	0.14301162	1.3449589	0.4939194	0.0090782983	1.0168511	0.45727113	0.014084609	1.1712068	0.84460242	-0.14412305	1.096467	0.82198765	0.1943484	1.227432	0.88888417	-0.08250549	1.2033235	0.87680852	0.16044772	1.0345783	0.95757482	0.024308152	1.18063	1.3855776	-0.13164041	1.2151272	1.3513815	0.21155961	1.1240309	1.3985704	0.050188043	0.99964479	1.1357978	-0.2016211	1.3549171	1.0679152	0.26580128	1.0861378	0.90664395	-0.25829955	1.5492824	1.1621548	0.13278015
399	1.592	1.5020812	0.10248907	-0.083410496	0.99862505	0.035489886	0.07679358	1.3749438	0.12259989	-0.10053875	0.87891772	0.098923393	0.11341873	1.3796462	0.14019474	-0.017550237	0.90261759	0.12127384	0.029007804	1.3088899	0.084753681	-0.052206949	0.82062806	0.099192334	0.056334582	1.3736287	0.50096801	-0.11146386	1.040805	0.45934583	0.1429318	1.3503908	0.49198419	0.0099714706	1.019954	0.45681079	0.01391089	1.177793	0.84323521	-0.144346	1.1014156	0.8209104	0.19362627	1.2338532	0.88755742	-0.082755746	1.2088417	0.87545687	0.16027278	1.0404567	0.95620538	0.023584014	1.1854547	1.3845048	-0.13200615	1.2200665	1.3504382	0.21137151	1.1285737	1.3973163	0.050055471	1.0040772	1.1348052	-0.20041136	1.3624028	1.068292	0.26464006	1.0886494	0.90543999	-0.25841747	1.5549108	1.1645908	0.13015396
400	1.596	1.5175589	0.1044718	-0.081658512	0.99867325	0.035470527	0.076793648	1.3898678	0.12140755	-0.099535975	0.87945198	0.099574978	0.11358881	1.3935424	0.13907746	-0.016572013	0.90322044	0.12169034	0.029120539	1.3246084	0.081935815	-0.051505783	0.82111902	0.10017116	0.056559123	1.3791965	0.49912048	-0.11071351	1.0438018	0.45889859	0.14285256	1.3558772	0.48998088	0.010884282	1.0231096	0.45634242	0.013738768	1.184359	0.84182005	-0.14459077	1.1067693	0.81996748	0.1932852	1.2402708	0.88618036	-0.083059697	1.2144072	0.87405329	0.16004368	1.0463576	0.9547767	0.022902257	1.1903219	1.3833693	-0.13238844	1.2250764	1.3494221	0.21117327	1.1331439	1.3960097	0.049912655	1.0086291	1.1337122	-0.19925486	1.3698323	1.068598	0.26347939	1.0912486	0.9041502	-0.25858405	1.5605725	1.166847	0.12760385
